<mxfile host="app.diagrams.net" modified="2023-11-30T13:06:09.428Z" agent="Mozilla/5.0 (X11; Linux x86_64) AppleWebKit/537.36 (KHTML, like Gecko) Chrome/119.0.0.0 Safari/537.36" etag="QDgpjVYxZrAyCTkU-8VO" version="22.1.5" type="github">
  <diagram id="C5RBs43oDa-KdzZeNtuy" name="Page-1">
    <mxGraphModel dx="1434" dy="840" grid="1" gridSize="10" guides="1" tooltips="1" connect="1" arrows="1" fold="1" page="1" pageScale="1" pageWidth="3300" pageHeight="2339" background="none" math="0" shadow="0">
      <root>
        <mxCell id="WIyWlLk6GJQsqaUBKTNV-0" />
        <mxCell id="WIyWlLk6GJQsqaUBKTNV-1" parent="WIyWlLk6GJQsqaUBKTNV-0" />
        <mxCell id="WIyWlLk6GJQsqaUBKTNV-2" value="" style="rounded=0;html=1;jettySize=auto;orthogonalLoop=1;fontSize=11;endArrow=block;endFill=0;endSize=8;strokeWidth=1;shadow=0;labelBackgroundColor=none;edgeStyle=orthogonalEdgeStyle;" parent="WIyWlLk6GJQsqaUBKTNV-1" source="WIyWlLk6GJQsqaUBKTNV-3" target="WIyWlLk6GJQsqaUBKTNV-6" edge="1">
          <mxGeometry relative="1" as="geometry" />
        </mxCell>
        <mxCell id="WIyWlLk6GJQsqaUBKTNV-3" value="Start" style="rounded=1;whiteSpace=wrap;html=1;fontSize=12;glass=0;strokeWidth=1;shadow=0;" parent="WIyWlLk6GJQsqaUBKTNV-1" vertex="1">
          <mxGeometry x="1560" y="40" width="120" height="40" as="geometry" />
        </mxCell>
        <mxCell id="WIyWlLk6GJQsqaUBKTNV-4" value="Yes" style="rounded=0;html=1;jettySize=auto;orthogonalLoop=1;fontSize=11;endArrow=block;endFill=0;endSize=8;strokeWidth=1;shadow=0;labelBackgroundColor=none;edgeStyle=orthogonalEdgeStyle;" parent="WIyWlLk6GJQsqaUBKTNV-1" source="WIyWlLk6GJQsqaUBKTNV-6" target="WIyWlLk6GJQsqaUBKTNV-10" edge="1">
          <mxGeometry y="20" relative="1" as="geometry">
            <mxPoint as="offset" />
          </mxGeometry>
        </mxCell>
        <mxCell id="WIyWlLk6GJQsqaUBKTNV-6" value="while not&lt;br&gt;at goal" style="rhombus;whiteSpace=wrap;html=1;shadow=0;fontFamily=Helvetica;fontSize=12;align=center;strokeWidth=1;spacing=6;spacingTop=-4;" parent="WIyWlLk6GJQsqaUBKTNV-1" vertex="1">
          <mxGeometry x="1570" y="130" width="100" height="80" as="geometry" />
        </mxCell>
        <mxCell id="WIyWlLk6GJQsqaUBKTNV-7" value="turn right" style="rounded=1;whiteSpace=wrap;html=1;fontSize=12;glass=0;strokeWidth=1;shadow=0;" parent="WIyWlLk6GJQsqaUBKTNV-1" vertex="1">
          <mxGeometry x="1560" y="390" width="120" height="40" as="geometry" />
        </mxCell>
        <mxCell id="WIyWlLk6GJQsqaUBKTNV-10" value="if facing north" style="rhombus;whiteSpace=wrap;html=1;shadow=0;fontFamily=Helvetica;fontSize=12;align=center;strokeWidth=1;spacing=6;spacingTop=-4;" parent="WIyWlLk6GJQsqaUBKTNV-1" vertex="1">
          <mxGeometry x="1570" y="250" width="100" height="80" as="geometry" />
        </mxCell>
        <mxCell id="WIyWlLk6GJQsqaUBKTNV-11" value="move()" style="rounded=1;whiteSpace=wrap;html=1;fontSize=12;glass=0;strokeWidth=1;shadow=0;" parent="WIyWlLk6GJQsqaUBKTNV-1" vertex="1">
          <mxGeometry x="1740" y="500" width="120" height="40" as="geometry" />
        </mxCell>
        <mxCell id="WIyWlLk6GJQsqaUBKTNV-12" value="turn left" style="rounded=1;whiteSpace=wrap;html=1;fontSize=12;glass=0;strokeWidth=1;shadow=0;" parent="WIyWlLk6GJQsqaUBKTNV-1" vertex="1">
          <mxGeometry x="1420" y="701" width="120" height="40" as="geometry" />
        </mxCell>
        <mxCell id="EO2Ofw-LG7gJAqe2EswB-3" value="if front is&amp;nbsp;&lt;br&gt;clear" style="rhombus;whiteSpace=wrap;html=1;shadow=0;fontFamily=Helvetica;fontSize=12;align=center;strokeWidth=1;spacing=6;spacingTop=-4;" vertex="1" parent="WIyWlLk6GJQsqaUBKTNV-1">
          <mxGeometry x="1570" y="480" width="100" height="80" as="geometry" />
        </mxCell>
        <mxCell id="EO2Ofw-LG7gJAqe2EswB-4" value="" style="endArrow=none;html=1;rounded=0;" edge="1" parent="WIyWlLk6GJQsqaUBKTNV-1">
          <mxGeometry width="50" height="50" relative="1" as="geometry">
            <mxPoint x="1480" y="520" as="sourcePoint" />
            <mxPoint x="1570" y="520" as="targetPoint" />
          </mxGeometry>
        </mxCell>
        <mxCell id="EO2Ofw-LG7gJAqe2EswB-5" value="" style="endArrow=classic;html=1;rounded=0;" edge="1" parent="WIyWlLk6GJQsqaUBKTNV-1">
          <mxGeometry width="50" height="50" relative="1" as="geometry">
            <mxPoint x="1480" y="520" as="sourcePoint" />
            <mxPoint x="1480" y="570.5" as="targetPoint" />
          </mxGeometry>
        </mxCell>
        <mxCell id="EO2Ofw-LG7gJAqe2EswB-6" value="elif wall&lt;br&gt;in front" style="rhombus;whiteSpace=wrap;html=1;shadow=0;fontFamily=Helvetica;fontSize=12;align=center;strokeWidth=1;spacing=6;spacingTop=-4;" vertex="1" parent="WIyWlLk6GJQsqaUBKTNV-1">
          <mxGeometry x="1430" y="570.5" width="100" height="80" as="geometry" />
        </mxCell>
        <mxCell id="EO2Ofw-LG7gJAqe2EswB-12" value="" style="endArrow=classic;html=1;rounded=0;entryX=0;entryY=0.5;entryDx=0;entryDy=0;" edge="1" parent="WIyWlLk6GJQsqaUBKTNV-1" target="WIyWlLk6GJQsqaUBKTNV-11">
          <mxGeometry width="50" height="50" relative="1" as="geometry">
            <mxPoint x="1670" y="519.5" as="sourcePoint" />
            <mxPoint x="1720" y="520" as="targetPoint" />
          </mxGeometry>
        </mxCell>
        <mxCell id="EO2Ofw-LG7gJAqe2EswB-13" value="" style="endArrow=classic;html=1;rounded=0;" edge="1" parent="WIyWlLk6GJQsqaUBKTNV-1">
          <mxGeometry width="50" height="50" relative="1" as="geometry">
            <mxPoint x="1479.5" y="650.5" as="sourcePoint" />
            <mxPoint x="1479.5" y="701" as="targetPoint" />
          </mxGeometry>
        </mxCell>
        <mxCell id="EO2Ofw-LG7gJAqe2EswB-14" value="jump()" style="rounded=1;whiteSpace=wrap;html=1;fontSize=12;glass=0;strokeWidth=1;shadow=0;" vertex="1" parent="WIyWlLk6GJQsqaUBKTNV-1">
          <mxGeometry x="1420" y="791.5" width="120" height="40" as="geometry" />
        </mxCell>
        <mxCell id="EO2Ofw-LG7gJAqe2EswB-15" value="" style="endArrow=classic;html=1;rounded=0;" edge="1" parent="WIyWlLk6GJQsqaUBKTNV-1">
          <mxGeometry width="50" height="50" relative="1" as="geometry">
            <mxPoint x="1479.5" y="741" as="sourcePoint" />
            <mxPoint x="1479.5" y="791.5" as="targetPoint" />
          </mxGeometry>
        </mxCell>
        <mxCell id="EO2Ofw-LG7gJAqe2EswB-16" value="" style="endArrow=classic;html=1;rounded=0;" edge="1" parent="WIyWlLk6GJQsqaUBKTNV-1">
          <mxGeometry width="50" height="50" relative="1" as="geometry">
            <mxPoint x="1620" y="430" as="sourcePoint" />
            <mxPoint x="1620" y="480.5" as="targetPoint" />
            <Array as="points">
              <mxPoint x="1620" y="449" />
            </Array>
          </mxGeometry>
        </mxCell>
        <mxCell id="EO2Ofw-LG7gJAqe2EswB-17" value="" style="endArrow=classic;html=1;rounded=0;" edge="1" parent="WIyWlLk6GJQsqaUBKTNV-1">
          <mxGeometry width="50" height="50" relative="1" as="geometry">
            <mxPoint x="1619.5" y="330" as="sourcePoint" />
            <mxPoint x="1619.5" y="390" as="targetPoint" />
          </mxGeometry>
        </mxCell>
        <mxCell id="EO2Ofw-LG7gJAqe2EswB-18" value="turn left" style="rounded=1;whiteSpace=wrap;html=1;fontSize=12;glass=0;strokeWidth=1;shadow=0;" vertex="1" parent="WIyWlLk6GJQsqaUBKTNV-1">
          <mxGeometry x="1390" y="270" width="120" height="40" as="geometry" />
        </mxCell>
        <mxCell id="EO2Ofw-LG7gJAqe2EswB-19" value="" style="endArrow=classic;html=1;rounded=0;" edge="1" parent="WIyWlLk6GJQsqaUBKTNV-1">
          <mxGeometry width="50" height="50" relative="1" as="geometry">
            <mxPoint x="1570" y="289.5" as="sourcePoint" />
            <mxPoint x="1510" y="289.5" as="targetPoint" />
          </mxGeometry>
        </mxCell>
        <mxCell id="EO2Ofw-LG7gJAqe2EswB-20" value="Yes" style="text;html=1;strokeColor=none;fillColor=none;align=center;verticalAlign=middle;whiteSpace=wrap;rounded=0;" vertex="1" parent="WIyWlLk6GJQsqaUBKTNV-1">
          <mxGeometry x="1635" y="350" width="30" height="20" as="geometry" />
        </mxCell>
        <mxCell id="EO2Ofw-LG7gJAqe2EswB-21" value="No" style="text;html=1;strokeColor=none;fillColor=none;align=center;verticalAlign=middle;whiteSpace=wrap;rounded=0;" vertex="1" parent="WIyWlLk6GJQsqaUBKTNV-1">
          <mxGeometry x="1533" y="264" width="30" height="20" as="geometry" />
        </mxCell>
        <mxCell id="EO2Ofw-LG7gJAqe2EswB-22" value="" style="endArrow=none;html=1;rounded=0;" edge="1" parent="WIyWlLk6GJQsqaUBKTNV-1">
          <mxGeometry width="50" height="50" relative="1" as="geometry">
            <mxPoint x="1670" y="290" as="sourcePoint" />
            <mxPoint x="1750" y="290" as="targetPoint" />
          </mxGeometry>
        </mxCell>
        <mxCell id="EO2Ofw-LG7gJAqe2EswB-23" value="" style="endArrow=none;html=1;rounded=0;" edge="1" parent="WIyWlLk6GJQsqaUBKTNV-1">
          <mxGeometry width="50" height="50" relative="1" as="geometry">
            <mxPoint x="1750" y="170" as="sourcePoint" />
            <mxPoint x="1751" y="291" as="targetPoint" />
          </mxGeometry>
        </mxCell>
        <mxCell id="EO2Ofw-LG7gJAqe2EswB-24" value="" style="endArrow=classic;html=1;rounded=0;" edge="1" parent="WIyWlLk6GJQsqaUBKTNV-1">
          <mxGeometry width="50" height="50" relative="1" as="geometry">
            <mxPoint x="1750" y="170" as="sourcePoint" />
            <mxPoint x="1670" y="170" as="targetPoint" />
          </mxGeometry>
        </mxCell>
        <mxCell id="EO2Ofw-LG7gJAqe2EswB-25" value="" style="endArrow=classic;html=1;rounded=0;entryX=1;entryY=1;entryDx=0;entryDy=0;" edge="1" parent="WIyWlLk6GJQsqaUBKTNV-1">
          <mxGeometry width="50" height="50" relative="1" as="geometry">
            <mxPoint x="1800" y="270" as="sourcePoint" />
            <mxPoint x="1645" y="190" as="targetPoint" />
          </mxGeometry>
        </mxCell>
        <mxCell id="EO2Ofw-LG7gJAqe2EswB-26" value="" style="endArrow=none;html=1;rounded=0;" edge="1" parent="WIyWlLk6GJQsqaUBKTNV-1">
          <mxGeometry width="50" height="50" relative="1" as="geometry">
            <mxPoint x="1800" y="500" as="sourcePoint" />
            <mxPoint x="1800" y="270" as="targetPoint" />
          </mxGeometry>
        </mxCell>
        <mxCell id="EO2Ofw-LG7gJAqe2EswB-27" value="wall in&amp;nbsp;&lt;br&gt;front" style="rhombus;whiteSpace=wrap;html=1;shadow=0;fontFamily=Helvetica;fontSize=12;align=center;strokeWidth=1;spacing=6;spacingTop=-4;" vertex="1" parent="WIyWlLk6GJQsqaUBKTNV-1">
          <mxGeometry x="1430" y="881.5" width="100" height="80" as="geometry" />
        </mxCell>
        <mxCell id="EO2Ofw-LG7gJAqe2EswB-28" value="" style="endArrow=classic;html=1;rounded=0;" edge="1" parent="WIyWlLk6GJQsqaUBKTNV-1">
          <mxGeometry width="50" height="50" relative="1" as="geometry">
            <mxPoint x="1480" y="831.5" as="sourcePoint" />
            <mxPoint x="1480" y="882" as="targetPoint" />
            <Array as="points">
              <mxPoint x="1480" y="850.5" />
            </Array>
          </mxGeometry>
        </mxCell>
      </root>
    </mxGraphModel>
  </diagram>
</mxfile>
